<?xml version="1.0" standalone="no"?><!DOCTYPE svg PUBLIC "-//W3C//DTD SVG 1.1//EN" "http://www.w3.org/Graphics/SVG/1.1/DTD/svg11.dtd"><svg t="1603887834595" class="icon" viewBox="0 0 1024 1024" version="1.1" xmlns="http://www.w3.org/2000/svg" p-id="989" xmlns:xlink="http://www.w3.org/1999/xlink" width="200" height="200"><defs><style type="text/css"></style></defs><path d="M896 256v662.741333c-0.298667 34.944-4.266667 48.213333-11.392 61.610667-7.424 13.909333-18.346667 24.832-32.256 32.256l-1.536 0.810667c-13.184 6.784-27.050667 10.453333-62.122667 10.581333H237.397333c-38.058667 0-51.84-3.968-65.706666-11.392a77.525333 77.525333 0 0 1-32.298667-32.256l-0.853333-1.578667C131.84 965.632 128.170667 951.765333 128 916.693333V109.397333c0-38.058667 3.968-51.84 11.392-65.706666 7.424-13.952 18.346667-24.874667 32.256-32.298667l1.578667-0.853333C186.368 3.84 200.234667 0.170667 235.306667 0H640l256 256z" fill="#CD1E2C" p-id="990"></path><path d="M640 0l256 256h-184.874667c-24.746667 0-33.706667-2.56-42.752-7.424a50.389333 50.389333 0 0 1-20.949333-20.949333l-0.725333-1.365334c-4.394667-8.618667-6.698667-17.877333-6.698667-41.386666V0z" fill="#AE0715" p-id="991"></path><path d="M319.786667 657.066667v-58.453334h23.210666c53.546667 0 74.538667-17.194667 74.538667-66.602666 0-45.610667-17.749333-64.426667-74.538667-64.426667H278.272V657.066667h41.514667z m17.749333-91.733334h-17.749333v-65.024h17.749333c27.861333 0 37.674667 8.192 37.674667 32.512 0 25.130667-9.557333 32.512-37.674667 32.512z m178.858667 91.733334c55.722667 0 92.288-21.589333 92.288-94.72 0-78.933333-36.565333-94.805333-92.288-94.805334H451.413333V657.066667h64.981334z m-2.176-35.498667h-21.333334v-119.04h21.333334c34.133333 0 51.626667 10.922667 51.626666 59.776 0 46.165333-16.64 59.264-51.626666 59.264z m173.397333 35.498667v-73.728h68.821333v-35.754667h-68.821333v-43.946667h74.24v-36.096h-115.754667V657.066667h41.514667z" fill="#FFFFFF" p-id="992"></path></svg>