<?xml version="1.0" standalone="no"?><!DOCTYPE svg PUBLIC "-//W3C//DTD SVG 1.1//EN" "http://www.w3.org/Graphics/SVG/1.1/DTD/svg11.dtd"><svg t="1604316865089" class="icon" viewBox="0 0 1024 1024" version="1.1" xmlns="http://www.w3.org/2000/svg" p-id="987" xmlns:xlink="http://www.w3.org/1999/xlink" width="200" height="200"><defs><style type="text/css"></style></defs><path d="M896 256v662.741333c-0.298667 34.944-4.266667 48.213333-11.392 61.610667-7.424 13.909333-18.346667 24.832-32.256 32.256l-1.536 0.810667c-13.184 6.784-27.050667 10.453333-62.122667 10.581333H237.397333c-38.058667 0-51.84-3.968-65.706666-11.392a77.525333 77.525333 0 0 1-32.298667-32.256l-0.853333-1.578667C131.84 965.632 128.170667 951.765333 128 916.693333V109.397333c0-38.058667 3.968-51.84 11.392-65.706666 7.424-13.952 18.346667-24.874667 32.256-32.298667l1.578667-0.853333C186.368 3.84 200.234667 0.170667 235.306667 0H640l256 256z" fill="#EDEDEE" p-id="988"></path><path d="M523.306667 691.754667v-5.888c0-10.112 2.090667-18.944 6.314666-27.392a65.28 65.28 0 0 1 16.853334-21.034667c20.224-17.706667 32.426667-29.098667 36.224-33.28 10.112-13.482667 15.573333-30.762667 15.573333-51.84 0-25.685333-8.405333-45.909333-25.258667-60.672-16.853333-15.146667-39.210667-22.314667-66.56-22.314667-31.189333 0-55.637333 8.832-73.728 26.538667-18.56 17.706667-27.392 42.112-27.392 73.301333h48.042667c0-17.706667 3.370667-31.573333 10.496-41.301333 8.021333-11.776 21.077333-17.237333 39.637333-17.237333 14.293333 0 25.685333 3.754667 33.706667 11.776 7.552 8.021333 11.776 18.944 11.776 32.853333 0 10.538667-3.797333 20.650667-11.392 29.909333l-5.034667 5.888c-27.392 24.448-43.818667 42.154667-49.28 53.504-5.930667 11.392-8.448 25.301333-8.448 41.301334v5.888h48.469334z m-24.448 84.266666a32.426667 32.426667 0 0 0 23.168-8.832 30.805333 30.805333 0 0 0 9.685333-23.168 31.146667 31.146667 0 0 0-9.258667-22.784 33.493333 33.493333 0 0 0-23.594666-8.832 32.426667 32.426667 0 0 0-23.168 8.832 29.568 29.568 0 0 0-9.258667 22.784c0 9.258667 2.944 16.853333 9.258667 22.741334a32.853333 32.853333 0 0 0 23.168 9.258666z" fill="#919191" p-id="989"></path><path d="M640 0l256 256h-184.874667c-24.746667 0-33.706667-2.56-42.752-7.424a50.389333 50.389333 0 0 1-20.949333-20.949333l-0.725333-1.365334c-4.394667-8.618667-6.698667-17.877333-6.698667-41.386666V0z" fill="#CCCDCF" p-id="990"></path></svg>